<?xml version="1.0" standalone="no"?>
<!DOCTYPE svg PUBLIC "-//W3C//DTD SVG 20010904//EN"
 "http://www.w3.org/TR/2001/REC-SVG-20010904/DTD/svg10.dtd">
<svg version="1.0" xmlns="http://www.w3.org/2000/svg"
 width="163.000000pt" height="163.000000pt" viewBox="0 0 163.000000 163.000000"
 preserveAspectRatio="xMidYMid meet">
<metadata>
Created by potrace 1.14, written by Peter Selinger 2001-2017
</metadata>
<g transform="translate(0.000000,163.000000) scale(0.100000,-0.100000)"
fill="#000000" stroke="none">
<path d="M722 1623 c-7 -3 -31 -41 -53 -84 -47 -94 -72 -112 -116 -84 l-28 18
28 10 c50 16 31 102 -21 92 -9 -2 -22 -4 -27 -4 -19 -2 -42 -55 -50 -115 -9
-77 -22 -103 -55 -115 -49 -17 -119 46 -87 78 16 16 44 13 51 -5 8 -22 9 -21
-16 -29 -21 -6 -21 -8 -4 -12 26 -7 39 11 31 45 -8 37 -28 46 -63 30 -38 -19
-51 -50 -41 -103 18 -96 18 -133 -2 -151 -21 -19 -83 -21 -104 -4 -8 7 -15 23
-15 36 0 19 7 26 30 30 34 7 31 24 -4 24 -24 0 -48 -22 -60 -54 -4 -13 7 -47
34 -102 22 -45 40 -87 40 -92 0 -14 -49 -52 -67 -52 -10 0 -11 4 -3 19 15 29
13 39 -15 57 -33 22 -61 10 -75 -31 -14 -42 -8 -54 64 -126 47 -47 56 -62 56
-92 0 -63 -84 -103 -114 -54 -9 15 -7 22 11 37 19 15 20 19 8 24 -21 8 -55
-28 -55 -57 0 -32 23 -53 105 -96 84 -43 102 -74 69 -118 -35 -46 -94 -48 -94
-3 0 19 25 34 41 24 5 -3 9 -15 9 -27 1 -21 1 -21 12 -3 9 16 7 23 -12 38 -30
24 -46 23 -66 -7 -14 -21 -14 -30 -4 -55 16 -38 31 -46 100 -55 87 -10 119
-23 126 -51 4 -14 2 -35 -3 -47 l-10 -22 -12 23 c-23 43 -100 15 -87 -32 3
-12 6 -24 6 -28 0 -11 53 -36 70 -33 19 3 81 14 123 20 24 4 38 0 55 -15 42
-39 20 -125 -30 -118 -18 2 -23 9 -23 31 1 31 -9 35 -23 10 -21 -36 30 -87 78
-78 11 2 45 18 75 35 40 23 65 30 92 28 34 -3 39 -7 51 -42 11 -33 10 -42 -3
-62 -20 -32 -41 -30 -59 4 -13 23 -15 24 -16 7 0 -32 28 -65 56 -65 17 0 47
21 94 65 51 48 76 65 97 65 34 0 46 -8 62 -39 15 -28 7 -38 -34 -43 -24 -2
-30 -8 -30 -28 0 -18 8 -27 28 -34 42 -15 77 9 109 73 47 92 55 101 92 101 36
0 70 -28 61 -52 -4 -10 -16 -13 -35 -10 -26 4 -30 1 -30 -20 0 -30 17 -48 48
-48 54 0 71 28 87 140 8 54 19 76 46 90 37 20 99 -14 99 -56 0 -14 -8 -25 -20
-29 -41 -13 -56 24 -17 43 22 11 22 11 -4 11 -30 1 -38 -13 -30 -48 10 -38 57
-46 87 -16 27 27 30 57 13 135 -13 62 -6 95 25 115 18 12 30 13 50 6 33 -13
33 -27 0 -44 l-26 -14 24 -26 c21 -24 25 -26 48 -14 14 7 31 25 38 40 12 25
10 34 -22 100 -40 82 -43 94 -33 123 7 21 45 44 71 44 24 0 58 -34 51 -52 -8
-21 -28 -29 -45 -18 -11 7 -11 12 -2 23 7 7 9 17 5 20 -14 15 -23 6 -23 -23 0
-23 6 -33 26 -42 24 -11 29 -9 50 15 40 47 31 71 -57 158 -69 68 -74 92 -28
144 35 40 67 45 93 16 17 -19 17 -21 -8 -45 -22 -23 -23 -26 -6 -26 46 0 67
69 33 104 -10 10 -49 35 -88 55 -85 44 -100 72 -66 120 41 57 115 34 77 -24
-20 -30 -4 -33 25 -4 24 24 18 54 -17 87 -19 17 -37 22 -75 22 -95 0 -149 42
-127 100 17 45 37 60 64 48 28 -13 31 -34 7 -60 -22 -25 2 -23 27 2 26 26 25
41 -6 75 -23 25 -30 27 -72 21 -137 -20 -148 -20 -171 5 -25 27 -27 52 -5 73
15 15 39 13 30 -3 -10 -15 12 -33 33 -26 33 10 38 51 10 81 -31 33 -59 30
-133 -11 -74 -41 -118 -45 -140 -13 -32 45 -12 96 23 64 17 -15 20 -15 41 2
l24 19 -27 27 c-14 14 -33 26 -42 26 -28 0 -69 -27 -118 -79 -39 -42 -54 -51
-82 -51 -55 0 -98 73 -63 108 21 21 47 14 54 -13 7 -29 13 -28 19 4 7 35 -49
62 -93 44z m48 -315 c0 -6 -6 -5 -15 2 -8 7 -15 14 -15 16 0 2 7 1 15 -2 8 -4
15 -11 15 -16z m-97 -2 c4 -10 1 -13 -8 -9 -8 3 -12 9 -9 14 7 12 11 11 17 -5z
m298 -3 c13 -15 12 -15 -7 -5 -12 6 -25 8 -29 4 -5 -4 -5 -1 -1 6 10 16 21 15
37 -5z m-114 -15 c-3 -8 -6 -5 -6 6 -1 11 2 17 5 13 3 -3 4 -12 1 -19z m-243
-4 c11 -28 6 -44 -11 -44 -15 0 -16 2 -3 10 12 8 13 13 2 30 -7 11 -8 20 -3
20 5 0 12 -7 15 -16z m436 8 c0 -5 -7 -9 -15 -9 -8 0 -12 4 -9 9 3 4 9 8 15 8
5 0 9 -4 9 -8z m-500 -12 c0 -5 -5 -10 -11 -10 -5 0 -7 5 -4 10 3 6 8 10 11
10 2 0 4 -4 4 -10z m427 -32 c-3 -7 -5 -2 -5 12 0 14 2 19 5 13 2 -7 2 -19 0
-25z m-253 13 c4 -5 -3 -7 -14 -4 -23 6 -26 13 -6 13 8 0 17 -4 20 -9z m-155
-41 c0 -10 -3 -8 -9 5 -12 27 -12 43 0 25 5 -8 9 -22 9 -30z m198 18 c-3 -8
-6 -5 -6 6 -1 11 2 17 5 13 3 -3 4 -12 1 -19z m167 -31 l21 -18 -22 11 c-22
10 -43 39 -43 57 0 4 6 -1 12 -12 6 -11 20 -28 32 -38z m104 33 c7 -11 11 -20
9 -20 -2 0 -12 9 -22 20 -10 11 -14 20 -9 20 5 0 15 -9 22 -20z m-213 -10 c-3
-5 -16 -15 -28 -21 -19 -9 -19 -8 3 10 28 23 34 26 25 11z m25 -8 c0 -10 -6
-19 -14 -19 -11 0 -12 4 -3 19 7 10 13 18 14 18 2 0 3 -8 3 -18z m-206 -25 c7
-6 6 -7 -4 -4 -8 2 -16 12 -17 23 -2 13 -1 15 4 4 3 -8 11 -19 17 -23z m61 4
c-6 -5 -25 10 -25 20 0 5 6 4 14 -3 8 -7 12 -15 11 -17z m65 15 c0 -2 -7 -6
-15 -10 -8 -3 -15 -1 -15 4 0 6 7 10 15 10 8 0 15 -2 15 -4z m-187 -29 c3 -8
-1 -14 -8 -14 -7 0 -11 6 -8 14 3 7 6 13 8 13 2 0 5 -6 8 -13z m460 -4 c-7 -2
-19 -2 -25 0 -7 3 -2 5 12 5 14 0 19 -2 13 -5z m-557 -304 c3 -5 -6 -5 -19 0
-14 6 -28 7 -33 3 -4 -4 -4 -2 -1 5 7 12 44 7 53 -8z m39 3 c-3 -3 -11 0 -18
7 -9 10 -8 11 6 5 10 -3 15 -9 12 -12z m69 2 c3 -8 2 -12 -4 -9 -6 3 -10 10
-10 16 0 14 7 11 14 -7z m85 -36 c18 -21 31 -38 27 -38 -9 0 -56 50 -56 60 0
9 -15 14 -33 11 -5 -1 -6 3 -2 9 8 14 25 3 64 -42z m51 33 c7 -14 7 -22 -2
-27 -6 -4 -8 -3 -4 4 3 6 2 13 -4 17 -10 6 -14 25 -5 25 2 0 9 -9 15 -19z
m190 -13 c0 -5 -7 -3 -15 6 -8 8 -15 18 -15 22 0 3 7 1 15 -6 8 -7 15 -17 15
-22z m216 13 c0 -16 -3 -17 -14 -9 -12 10 -7 19 13 28 1 0 1 -9 1 -19z m-285
-8 c13 -16 12 -17 -3 -4 -10 7 -18 15 -18 17 0 8 8 3 21 -13z m159 7 c0 -5 -2
-10 -4 -10 -3 0 -8 5 -11 10 -3 6 -1 10 4 10 6 0 11 -4 11 -10z m-483 -25 c0
-8 -4 -12 -9 -9 -5 3 -6 10 -3 15 9 13 12 11 12 -6z m75 -29 c2 -19 0 -32 -4
-30 -8 5 -12 64 -4 64 2 0 6 -15 8 -34z m-125 -37 c-6 -10 -13 -16 -16 -13 -3
2 1 10 7 16 9 9 8 17 -6 32 -17 21 -17 21 5 2 18 -15 20 -21 10 -37z m180 29
c-3 -8 -6 -5 -6 6 -1 11 2 17 5 13 3 -3 4 -12 1 -19z m80 7 c0 -8 -4 -12 -9
-9 -5 3 -6 10 -3 15 9 13 12 11 12 -6z m345 -40 c11 -21 8 -18 -32 30 -24 29
-24 29 -2 10 13 -11 28 -29 34 -40z m93 45 c3 -6 -1 -7 -9 -4 -18 7 -21 14 -7
14 6 0 13 -4 16 -10z m-401 -16 c3 -8 2 -12 -4 -9 -6 3 -10 10 -10 16 0 14 7
11 14 -7z m180 -12 c13 -24 13 -29 1 -29 -8 0 -12 4 -9 8 3 5 0 18 -6 29 -6
11 -8 20 -6 20 3 0 12 -13 20 -28z m181 9 c3 -5 2 -12 -3 -15 -5 -3 -9 1 -9 9
0 17 3 19 12 6z m-254 -19 c-9 -3 -10 -6 -2 -12 7 -4 -5 -7 -26 -7 -21 0 -28
2 -16 4 12 2 27 11 34 19 6 8 15 12 18 8 3 -4 0 -9 -8 -12z m-336 -10 c-3 -3
-11 0 -18 7 -9 10 -8 11 6 5 10 -3 15 -9 12 -12z m112 3 c0 -8 -4 -12 -9 -9
-5 3 -6 10 -3 15 9 13 12 11 12 -6z m-212 -13 c-3 -3 -11 0 -18 7 -9 10 -8 11
6 5 10 -3 15 -9 12 -12z m145 14 c0 -2 -7 -7 -16 -10 -8 -3 -12 -2 -9 4 6 10
25 14 25 6z m415 -14 c-3 -3 -11 0 -18 7 -9 10 -8 11 6 5 10 -3 15 -9 12 -12z
m195 2 c0 -2 -11 -3 -24 -2 -14 1 -23 5 -20 9 4 7 44 0 44 -7z"/>
</g>
</svg>
